<?xml version="1.0" encoding="UTF-8" standalone="no"?>
<svg xmlns="http://www.w3.org/2000/svg" width="240" height="60" viewBox="0 0 240 60">
  <defs>
    <linearGradient id="udiseGradient" x1="0%" y1="0%" x2="100%" y2="100%">
      <stop offset="0%" style="stop-color:#0e4686;stop-opacity:1" />
      <stop offset="100%" style="stop-color:#1a5ca6;stop-opacity:1" />
    </linearGradient>
  </defs>
  <rect width="240" height="60" rx="8" fill="url(#udiseGradient)"/>
  <g fill="#ffffff">
    <!-- UDISE+ Text -->
    <path d="M30,20 C30,16.7 32.7,14 36,14 L44,14 C47.3,14 50,16.7 50,20 L50,40 C50,43.3 47.3,46 44,46 L36,46 C32.7,46 30,43.3 30,40 L30,20 Z M36,20 L36,40 L44,40 L44,20 L36,20 Z" />
    <path d="M55,14 L61,14 L61,40 L75,40 L75,46 L55,46 Z" />
    <path d="M80,14 L86,14 L86,46 L80,46 Z" />
    <path d="M92,14 L98,14 L98,34 C98,37.3 100.7,40 104,40 L112,40 C115.3,40 118,37.3 118,34 L118,14 L124,14 L124,34 C124,40.6 118.6,46 112,46 L104,46 C97.4,46 92,40.6 92,34 L92,14 Z" />
    <path d="M130,14 L136,14 L136,34 C136,37.3 138.7,40 142,40 L150,40 C153.3,40 156,37.3 156,34 L156,14 L162,14 L162,34 C162,40.6 156.6,46 150,46 L142,46 C135.4,46 130,40.6 130,34 L130,14 Z" />
    <path d="M168,14 L194,14 L194,20 L181,20 L181,46 L175,46 L175,20 L168,20 Z" />
    
    <!-- Plus Symbol -->
    <circle cx="205" cy="30" r="12" fill="#ffffff"/>
    <rect x="199" y="28" width="12" height="4" fill="url(#udiseGradient)"/>
    <rect x="203" y="24" width="4" height="12" fill="url(#udiseGradient)"/>
  </g>
  
  <!-- Tagline -->
  <text x="120" y="55" font-family="Arial, sans-serif" font-size="7" text-anchor="middle" fill="#ffffff">Unified District Information System for Education</text>
</svg>
